<svg id="Layer_1" data-name="Layer 1" xmlns="http://www.w3.org/2000/svg" viewBox="0 0 434.68 145.14"><defs><style>.cls-1,.cls-2{font-size:17.19px;font-family:Arial;}.cls-1{fill:#b2b2b2;}.cls-2,.cls-3{fill:#3d536b;}.cls-4,.cls-5{fill:none;}.cls-4{stroke:#c6c6c6;stroke-width:0.25px;}.cls-4,.cls-5,.cls-6{stroke-miterlimit:10;}.cls-5,.cls-6{stroke:#3d536b;}.cls-6{fill:#fff;}</style></defs><title>Proceshjulet</title><text class="cls-1" transform="translate(316.03 131.61)">Implementering</text><text class="cls-1" transform="translate(364.9 79.85)">Udvikling</text><text class="cls-1" transform="translate(337.2 26.03)">Specifikation</text><text class="cls-1" transform="translate(0.57 27.32)">Foranalyse</text><text class="cls-1" transform="translate(0 83.15)">Idé</text><text class="cls-2" transform="translate(0 132.44)">Drift</text><circle class="cls-3" cx="218.68" cy="200.81" r="20.31" transform="translate(-103.02 -16.87) rotate(-14.16)"/><polyline class="cls-4" points="2.19 34.28 86.96 34.28 99.85 21.39 137.57 21.39"/><polyline class="cls-5" points="2.19 138.88 35.02 138.88 51.5 125.99 148.88 125.99"/><circle class="cls-6" cx="218.68" cy="97.28" r="20.31" transform="translate(-77.7 -20.02) rotate(-14.16)"/><polyline class="cls-4" points="433.02 33.46 337.2 33.46 323.02 20.79 237.69 20.79"/><polyline class="cls-4" points="433.36 86.47 366.36 86.47 353.02 73.8 237.82 73.8"/><circle class="cls-6" cx="278.06" cy="97.28" r="20.31" transform="translate(-75.89 -5.49) rotate(-14.16)"/><polyline class="cls-4" points="2.19 87.29 24.88 87.29 39.2 72.97 112.75 72.97"/><polyline class="cls-4" points="434.02 138.53 316.16 138.53 301 124.2 237.82 124.2"/><circle class="cls-6" cx="306.28" cy="149.14" r="20.31" transform="translate(-87.72 2.99) rotate(-14.16)"/><circle class="cls-6" cx="278.06" cy="200.81" r="20.31" transform="translate(-101.22 -2.35) rotate(-14.16)"/><circle class="cls-6" cx="190.58" cy="149.48" r="20.31" transform="translate(-91.32 -25.31) rotate(-14.16)"/></svg>