<svg id="Layer_1" data-name="Layer 1" xmlns="http://www.w3.org/2000/svg" viewBox="0 0 383.8 194.04"><defs><style>.cls-1{fill:#00a89d;}.cls-2{fill:#6ea7c1;}.cls-3{fill:#9cc4d5;}.cls-4{fill:#f9e9d4;}.cls-5{fill:#72675b;}.cls-6{fill:#007d78;}.cls-7{fill:#99c3d4;}.cls-8{fill:#f5dcbd;}.cls-9{fill:#554d43;}.cls-10{fill:#5a595e;}.cls-11{fill:#eac88d;}.cls-12{fill:#544e42;}.cls-13{fill:#434247;}.cls-14{fill:#b3956b;}.cls-15{fill:#aec1bb;}.cls-16{fill:#3b576f;}.cls-17{fill:#f5d96e;}.cls-18{fill:#7c8888;}.cls-19{fill:#2b4155;}.cls-20{fill:#d4bb60;}.cls-21{fill:#c6c6c6;}</style></defs><title>ForsideIllustration</title><path class="cls-1" d="M24.23,208.24H88.41V162l-15.5-15.5-24.66,2.4s-18.77-.87-20.52,17.9S24.23,208.24,24.23,208.24Z" transform="translate(-24.23 -16.15)"/><polygon class="cls-2" points="52.26 122.43 42.35 122.67 49.42 130.06 52.26 122.43"/><polygon class="cls-3" points="55.23 160.65 64.18 145.81 42.35 122.67 36.81 131.47 55.23 160.65"/><polygon class="cls-4" points="39.08 112.19 51.63 113.5 52.26 122.43 49.42 130.06 64.18 145.81 64.51 57.19 36.81 59.59 31.22 83.01 39.08 112.19"/><path class="cls-5" d="M75.86,135.44l-17.25.87-9.5-35.25s-4-20.74,7.75-35.58S88.74,52.16,88.74,52.16v27.4H70.4s-5.24-.44-5.35,7.75l-0.11,8.84s-2.51-5.89-5.24-1c0,0-.93,5.78,0,8.72a4.13,4.13,0,0,0,.28.67c1.42,2.62,1.31,1.86,1.31,1.86s0.22,5.35,3.38,2.84c0,0,.87,17.14,11.13,20.41v5.78Z" transform="translate(-24.23 -16.15)"/><path class="cls-6" d="M152.59,208.24H88.41V162l15.5-15.5,24.66,2.4s18.77-.87,20.52,17.9S152.59,208.24,152.59,208.24Z" transform="translate(-24.23 -16.15)"/><polygon class="cls-2" points="76.1 122.43 86.01 122.67 78.94 130.06 76.1 122.43"/><polygon class="cls-7" points="73.13 160.65 64.18 145.81 86.01 122.67 91.55 131.47 73.13 160.65"/><polygon class="cls-8" points="89.28 112.19 76.73 113.5 76.1 122.43 78.94 130.06 64.18 145.81 64.51 57.19 91.55 59.59 97.14 83.01 89.28 112.19"/><path class="cls-9" d="M101,135.44l17.25,0.87,9.5-35.25s4-20.74-7.75-35.58S88.74,52.16,88.74,52.16v27.4h17.68s5.24-.44,5.35,7.75l0.11,8.84s2.51-5.89,5.24-1c0,0,.93,5.78,0,8.72a4.13,4.13,0,0,1-.28.67c-1.42,2.62-1.31,1.86-1.31,1.86s-0.22,5.35-3.38,2.84c0,0-.87,17.14-11.13,20.41v5.78Z" transform="translate(-24.23 -16.15)"/><path class="cls-10" d="M273.57,210.19V166.25s0.87-29.48,18.92-29.2h27.94s1.16,10.57,20.37,10v63.13H273.57Z" transform="translate(-24.23 -16.15)"/><path class="cls-11" d="M340.8,57.78v89.28s-18,1.39-20.37-10c0,0,9,1.11,9-5.7s0.15-9.73.15-9.73-10.62-7.87-10.77-19.16c0,0-4.95.67-4.95-6.42,0,0-1.16-6.26,2.47-8.2H319l0.15-11.68,1.46-11.26L331,60Z" transform="translate(-24.23 -16.15)"/><path class="cls-5" d="M340.8,50.69s-12.37-.42-18,8.2S315.19,69.6,315,76.55s0,10,0,10l1.31,1.25H319l0.15-11.68s1.75-9.6,10.77-11.54S340.8,63.2,340.8,63.2V50.69Z" transform="translate(-24.23 -16.15)"/><path class="cls-12" d="M330.18,108.68l-5.09,1.95s-2.94,2.09-4.74-1c0,0,3.35,7,4.92,7.81l4.34,4.15H340.8V104.78Z" transform="translate(-24.23 -16.15)"/><path class="cls-13" d="M408,210.19V166.25s-0.87-29.48-18.92-29.2H361.17s-1.16,10.57-20.37,10v63.13H408Z" transform="translate(-24.23 -16.15)"/><path class="cls-14" d="M340.8,57.78v89.28s18,1.39,20.37-10c0,0-9,1.11-9-5.7s-0.15-9.73-.15-9.73,10.62-7.87,10.77-19.16c0,0,4.95.67,4.95-6.42,0,0,1.16-6.26-2.47-8.2h-2.62l-0.15-11.68L361,64.87,350.55,60Z" transform="translate(-24.23 -16.15)"/><path class="cls-9" d="M340.8,50.69s12.37-.42,18,8.2,7.57,10.71,7.71,17.66,0,10,0,10l-1.31,1.25h-2.62l-0.15-11.68s-1.75-9.6-10.77-11.54S340.8,63.2,340.8,63.2V50.69Z" transform="translate(-24.23 -16.15)"/><path class="cls-12" d="M351.42,108.68l5.09,1.95s2.94,2.09,4.74-1c0,0-3.35,7-4.92,7.81L352,121.61H340.8V104.78Z" transform="translate(-24.23 -16.15)"/><polygon class="cls-15" points="179.44 74.43 179.44 89 182.16 96.22 193.43 96.22 193.43 74.43 179.44 74.43"/><path class="cls-16" d="M217.66,116.59v-6.3H205.61a1.21,1.21,0,0,0-1.18,1.44v3.58a1.33,1.33,0,0,0,1.24,1.24Z" transform="translate(-24.23 -16.15)"/><path class="cls-16" d="M201,104.91v2.31a1.65,1.65,0,0,0,1.27.87h15.37v-6.24H202.29a1.14,1.14,0,0,0-1.27,1v2Z" transform="translate(-24.23 -16.15)"/><path class="cls-16" d="M201,96.59V94.34s0-.92,1.85-0.92h14.79v6.24H202.17a0.92,0.92,0,0,1-1.16-1v-2Z" transform="translate(-24.23 -16.15)"/><path class="cls-17" d="M217.66,16.15s-35.25.81-35,37.1c0,0-.81,13.52,12.71,26,0,0,4.85,10.06,6.13,11.33s2.2,1.11,2.2,1.11h14V16.15Z" transform="translate(-24.23 -16.15)"/><polygon class="cls-18" points="207.41 74.43 207.41 89 204.69 96.22 193.42 96.22 193.42 74.43 207.41 74.43"/><path class="cls-19" d="M217.65,116.59v-6.3H229.7a1.21,1.21,0,0,1,1.18,1.44v3.58a1.33,1.33,0,0,1-1.24,1.24Z" transform="translate(-24.23 -16.15)"/><path class="cls-19" d="M234.3,104.91v2.31a1.65,1.65,0,0,1-1.27.87H217.65v-6.24H233a1.14,1.14,0,0,1,1.27,1v2Z" transform="translate(-24.23 -16.15)"/><path class="cls-19" d="M234.3,96.59V94.34s0-.92-1.85-0.92H217.65v6.24h15.49a0.92,0.92,0,0,0,1.16-1v-2Z" transform="translate(-24.23 -16.15)"/><path class="cls-20" d="M217.65,16.15s35.25,0.81,35,37.1c0,0,.81,13.52-12.71,26,0,0-4.85,10.06-6.13,11.33s-2.2,1.11-2.2,1.11h-14V16.15Z" transform="translate(-24.23 -16.15)"/><polygon class="cls-21" points="148.86 125.2 224 125.2 224 136.42 237.99 122.43 224 108.43 224 119.65 148.86 119.65 148.86 125.2"/><polygon class="cls-21" points="233.31 151.46 158.16 151.46 158.16 162.68 144.17 148.69 158.16 134.7 158.16 145.92 233.31 145.92 233.31 151.46"/></svg>